<?xml version="1.0" encoding="utf-8"?>
<!DOCTYPE svg PUBLIC "-//W3C//DTD SVG 1.1//EN" "http://www.w3.org/Graphics/SVG/1.1/DTD/svg11.dtd">
<svg style="width:308px;height:308px;" version="1.1" id="图形" xmlns="http://www.w3.org/2000/svg" xmlns:xlink="http://www.w3.org/1999/xlink" x="0px" y="0px" width="1152px" height="1024px" viewBox="0 0 1152 1024" enable-background="new 0 0 1152 1024" xml:space="preserve">
  <path class="svgpath" data-index="path_0" fill="#272636" d="M978.560364 186.181818c0 24.522182-16.638545 46.545455-37.158545 46.545455L177.188 232.727273c-20.520727 0-37.159273-22.023273-37.159273-46.545455l0 0c0-24.522182 16.637818-46.545455 37.159273-46.545455l764.213818 0C961.921818 139.636364 978.560364 161.659636 978.560364 186.181818L978.560364 186.181818z" />
<path class="svgpath" data-index="path_1" fill="#272636" d="M978.560364 512c0 24.522182-16.638545 46.545455-37.158545 46.545455L177.188 558.545455c-20.520727 0-37.159273-22.023273-37.159273-46.545455l0 0c0-24.522182 16.637818-46.545455 37.159273-46.545455l764.213818 0C961.921818 465.454545 978.560364 487.477818 978.560364 512L978.560364 512z" />
<path class="svgpath" data-index="path_2" fill="#272636" d="M978.560364 837.818182c0 24.522182-16.638545 46.545455-37.158545 46.545455L177.188 884.363636c-20.520727 0-37.159273-22.023273-37.159273-46.545455l0 0c0-24.522182 16.637818-46.545455 37.159273-46.545455l764.213818 0C961.921818 791.272727 978.560364 813.296 978.560364 837.818182L978.560364 837.818182z" />

</svg>
